<svg width="375" height="667" viewBox="0 0 375 667" fill="none" xmlns="http://www.w3.org/2000/svg">
<g clip-path="url(#clip0_7:3)">
<rect width="375" height="667" rx="15" fill="#F7F7FC"/>
<path d="M436.649 431.768C433.313 461.683 318.991 473.485 181.304 458.131C43.6173 442.776 -65.2957 406.078 -61.9597 376.164C-58.6237 346.25 55.698 334.447 193.385 349.802C331.072 365.157 439.985 401.854 436.649 431.768Z" fill="#2542AA"/>
<path d="M-62.0427 376.973C21.3173 388.483 104.637 399.673 187.807 409.143C270.687 414.763 353.567 420.553 436.647 429.553C437.567 528.503 437.677 616.503 437.677 702.913C353.667 702.483 269.677 702.163 185.687 701.873C101.707 701.603 17.7273 701.323 -66.2427 701.033C-64.8827 592.863 -63.4927 484.733 -62.0427 376.973Z" fill="#2542AA"/>
</g>
<defs>
<clipPath id="clip0_7:3">
<rect width="375" height="667" rx="15" fill="white"/>
</clipPath>
</defs>
</svg>
