<svg width="511" height="381" viewBox="0 0 511 381" fill="none" xmlns="http://www.w3.org/2000/svg">
<path d="M504.892 109.796C501.556 139.71 387.234 151.512 249.547 136.158C111.86 120.803 2.94705 84.1054 6.28303 54.1913C9.61902 24.2772 123.941 12.4745 261.628 27.8292C399.315 43.1838 508.227 79.8814 504.892 109.796Z" fill="#2542AA"/>
<path d="M6.2 54.9998C89.56 66.5098 172.88 77.6998 256.05 87.1698C338.93 92.7898 421.81 98.5798 504.89 107.58C505.81 206.53 505.92 294.53 505.92 380.94C421.91 380.51 337.92 380.19 253.93 379.9C169.95 379.63 85.97 379.35 2 379.06C3.36 270.89 4.75 162.76 6.2 54.9998Z" fill="#2542AA"/>
</svg>
