<svg width="235" height="98" viewBox="0 0 235 98" fill="none" xmlns="http://www.w3.org/2000/svg">
<rect x="38.2663" y="22.5096" width="158.467" height="60.3257" fill="#A87253"/>
<circle cx="44.1188" cy="83.7357" r="11.2548" fill="#A87253"/>
<circle cx="190.881" cy="83.7357" r="11.2548" fill="#A87253"/>
<rect x="44.1188" y="72.4809" width="146.762" height="22.5096" fill="#A87253"/>
<circle cx="25.039" cy="13.7843" r="11.2548" transform="rotate(75 25.039 13.7843)" fill="#A87253"/>
<circle cx="43.7984" cy="83.7954" r="11.2548" transform="rotate(75 43.7984 83.7954)" fill="#A87253"/>
<rect x="35.9103" y="10.8713" width="72.4808" height="22.5096" transform="rotate(75 35.9103 10.8713)" fill="#A87253"/>
<rect x="180.288" y="80.8824" width="72.4808" height="22.5096" transform="rotate(-75 180.288 80.8824)" fill="#A87253"/>
<circle cx="209.919" cy="13.7842" r="11.2548" transform="rotate(-75 209.919 13.7842)" fill="#A87253"/>
<circle cx="191.16" cy="83.7954" r="11.2548" transform="rotate(-75 191.16 83.7954)" fill="#A87253"/>
<circle cx="11.2548" cy="11.2548" r="11.2548" fill="#5F3A25"/>
<circle cx="223.745" cy="11.2548" r="11.2548" fill="#5F3A25"/>
<rect x="11.2548" y="1.52588e-05" width="212.49" height="22.5096" fill="#5F3A25"/>
</svg>
