<svg width="50" height="50" viewBox="0 0 50 50" fill="none" xmlns="http://www.w3.org/2000/svg">
<path d="M19.4322 5.11501C20.4322 5.25527 21.2956 5.05668 22.0224 4.51923C22.8222 10.0118 23.6239 15.0265 24.4275 19.5632C23.9109 19.6564 23.3242 19.7658 22.6675 19.8913C22.4022 15.2208 21.3238 10.2953 19.4322 5.11501Z" fill="#BD8964"/>
<ellipse cx="19.4129" cy="32.7404" rx="13.6538" ry="17.1635" transform="rotate(-5.65374 19.4129 32.7404)" fill="#F36868"/>
<path d="M37.3435 0.312004C38.255 2.88719 36.2331 8.06505 33.5651 11.218C31.022 14.3257 26.1474 17.5527 23.2579 17.4542C22.9964 14.9413 25.4221 9.52013 28.0074 6.37414C30.5782 3.24111 35.0537 0.240977 37.3423 0.311037" fill="#ADE7BD"/>
<ellipse cx="28.8043" cy="32.7359" rx="14.6635" ry="17.1635" transform="rotate(8.67204 28.8043 32.7359)" fill="#F36868"/>
</svg>
