<svg width="460" height="484" viewBox="0 0 460 484" fill="none" xmlns="http://www.w3.org/2000/svg">
<path d="M130 202.15C136.252 200.101 142.519 198.048 148.775 196C170.499 241.603 192.228 287.206 213.956 332.813C195.954 333.869 177.948 334.939 159.951 336C149.962 291.385 139.979 246.77 130 202.15Z" fill="#C3D1E6"/>
<path d="M326.554 204.268C332.499 202.488 338.293 200.734 343.942 199C318.553 243.137 298.945 286.59 284.697 329.446C266.041 330.596 247.05 331.798 228 333C258.178 290.394 291.272 247.459 326.554 204.268Z" fill="#C3D1E6"/>
<path d="M208.33 230.405C217.308 228.318 226.272 226.169 235.199 224C241.446 258.207 248.936 294.059 257.56 331.437C232.759 332.01 207.876 332.521 183 333C190.868 298.043 199.353 263.918 208.33 230.405Z" fill="#C3D1E6"/>
<path d="M156.66 310.35C202.54 321.03 248.52 320.24 291.34 308C273.06 373.07 270.72 431.58 282.55 483.99C244.09 483.73 199.06 482.89 147 481.28C156.97 430.5 162.47 373.77 156.66 310.35Z" fill="#C3D1E6"/>
<circle cx="77" cy="184" r="40" fill="#7892F0"/>
<circle cx="117" cy="210" r="40" fill="#7892F0"/>
<circle cx="117" cy="210" r="40" fill="#7892F0"/>
<circle cx="166" cy="224" r="40" fill="#7892F0"/>
<circle cx="220" cy="224" r="40" fill="#7892F0"/>
<circle cx="277" cy="215" r="40" fill="#7892F0"/>
<circle cx="323" cy="196" r="40" fill="#7892F0"/>
<circle cx="380" cy="175" r="40" fill="#7892F0"/>
<circle cx="40" cy="144" r="40" fill="#7892F0"/>
<circle cx="420" cy="156" r="40" fill="#7892F0"/>
<ellipse cx="249" cy="135" rx="91" ry="75" fill="#7892F0"/>
<ellipse cx="227" cy="67.5" rx="80" ry="67.5" fill="#7892F0"/>
<ellipse cx="343.5" cy="110" rx="76.5" ry="74" fill="#7892F0"/>
<ellipse cx="139.5" cy="120.5" rx="102.5" ry="103.5" fill="#7892F0"/>
</svg>
